<svg id="Layer_1" data-name="Layer 1" preserveAspectRatio="xMidYMid meet" xmlns="http://www.w3.org/2000/svg" width="653.6519" height="336.3333" viewBox="0 0 653.6519 336.3333"><defs><style>.cls-1{fill:#fff;}.cls-2{fill:#079247;}.cls-3{fill:#f6eb16;}.cls-4{fill:#754d25;}</style></defs><title>LemonAuction Logo copia</title><path class="cls-1" d="M84.9247,320.57c2.9629,7.5156,7.1543,9.3223,10.2618,9.4668V333c-4.0469-.2891-10.2618-.4336-15.8985-.4336-7.66,0-14.7422.1445-18.9336.4336v-2.9629c7.1543-.2891,10.4785-1.373,10.4785-5.4922a20.3615,20.3615,0,0,0-1.7343-6.9375l-9.1055-24.2812H24.2939l-6.07,15.6816c-2.0235,5.1309-2.9629,9.1055-2.9629,12.1406,0,6.4317,4.4082,8.6719,12.8633,8.8887V333c-5.6368-.2891-11.8516-.4336-17.0547-.4336A108.866,108.866,0,0,0,.0126,333v-2.9629c3.83-.8672,8.2383-3.9746,11.6348-12.8633l34.832-89.6816h2.3848ZM42.36,246.209,25.3779,290.3633H58.9091Z"/><path class="cls-1" d="M191.747,231.1777c-10.0449.4336-11.9238,3.3965-11.9238,14.2364V289.93c0,13.73-1.6621,23.8476-6.07,31.3633-4.9141,8.31-14.959,13.8027-27.1,13.8027-9.4668,0-18.3555-1.9512-24.8594-8.0215-8.7442-8.166-10.9844-16.5488-10.9844-36.7109V243.8965c0-10.7676-1.8789-12.2852-11.9961-12.7188v-2.9629c4.1914.2891,11.2735.4336,18.9336.4336,6.8652,0,14.2363-.1445,18.8613-.4336v2.9629c-10.1172.4336-11.9961,1.9512-11.9961,12.7188v48.9961c0,20.3066,2.3125,37,23.3418,37,22.33,0,28.4-16.26,28.4-38.3008V245.4141c0-10.84-3.3965-13.8028-13.4414-14.2364v-2.9629c3.541.2891,10.0449.4336,15.1035.4336s10.4786-.1445,13.7305-.4336Z"/><path class="cls-1" d="M277.6845,235.7305a4.826,4.826,0,0,0,2.8906,1.3007c2.0235,0,3.252-2.746,3.7578-8.8164h3.3965c-.4336,7.2266-.5781,16.8379-.5781,34.0372h-3.3965c-2.0957-12.5743-3.2519-16.5489-7.4433-21.8965-6.2149-8.0215-15.9707-11.5625-26.16-11.5625-19.2949,0-32.0137,20.0175-32.0137,52.1035,0,33.0254,14.3809,51.2363,33.459,51.2363,8.8887,0,19.7285-3.2519,25.293-11.2734,4.3359-5.7813,5.3476-11.418,6.8652-23.4141h3.3965c0,17.9219.1445,28.0391.5781,35.5547h-3.3965c-.5058-6.07-1.5175-8.7441-3.6132-8.7441a6.1774,6.1774,0,0,0-3.0352,1.2285c-7.2988,5.1308-14.67,9.6113-27.3887,9.6113-28.1113,0-46.9-19.7285-46.9-53.6211,0-33.0976,19.5118-55.3555,47.045-55.3555C263.4482,226.1191,271.1806,230.7441,277.6845,235.7305Z"/><path class="cls-1" d="M384.5073,247.1484c0,4.77.1445,9.0332.4336,12.1407h-3.3965c-2.0957-20.5957-4.2637-27.6778-22.7637-27.6778h-8.0215v84.1895c0,11.9961,2.5293,13.8027,14.959,14.2363V333c-5.2031-.2891-13.7305-.4336-21.752-.4336-8.8881,0-17.1987.1445-21.8959.4336v-2.9629c12.43-.4336,14.9584-2.24,14.9584-14.2363V231.6113h-8.0209c-18.5,0-20.74,7.0821-22.7637,27.6778h-3.3965c.2891-3.1075.4336-7.3711.4336-12.1407,0-3.6855-.2891-11.4179-1.084-18.9336,12.2852.4336,29.6289.4336,41.769.4336s29.2676,0,41.5528-.4336C384.7963,235.7305,384.5073,243.4629,384.5073,247.1484Z"/><path class="cls-1" d="M434.3842,231.1777c-10.0449.4336-11.9961,1.9512-11.9961,12.7188v73.4219c0,10.7675,1.9512,12.2851,11.9961,12.7187V333c-4.5527-.2891-11.9961-.4336-18.789-.4336-7.66,0-14.8145.1445-18.9336.4336v-2.9629c10.0449-.4336,11.9961-1.9512,11.9961-12.7187V243.8965c0-10.7676-1.9512-12.2852-11.9961-12.7188v-2.9629c4.1191.2891,11.2734.4336,18.9336.4336,6.7929,0,14.2363-.1445,18.789-.4336Z"/><path class="cls-1" d="M541.8569,279.74c0,33.0977-19.5117,55.3555-47.0449,55.3555-28.1114,0-46.9-19.7285-46.9-53.6211,0-33.0976,19.5117-55.3555,47.0449-55.3555C523.0678,226.1191,541.8569,245.8477,541.8569,279.74Zm-79.2032,1.1563c0,31.5078,14.5254,51.5254,32.7364,51.5254,19.2226,0,31.6523-21.4629,31.6523-52.1035,0-31.5079-14.4531-51.5254-32.664-51.5254C475.0834,228.793,462.6537,250.2559,462.6537,280.8965Z"/><path class="cls-1" d="M648.3178,231.1777c-10.0449.4336-11.9961,3.3965-11.9961,14.2364v88.3086h-3.3965l-62.1484-96.0411v78.1192c0,10.84,1.9512,13.8027,13.4414,14.2363V333c-3.541-.2891-10.0449-.4336-15.1035-.4336-4.9863,0-10.4785.1445-13.7305.4336v-2.9629c10.0449-.4336,11.9961-3.3965,11.9961-14.2363V243.8965c0-10.7676-1.9512-12.2852-11.9961-12.7188v-2.9629c3.252.2891,8.7442.4336,13.7305.4336,4.3359,0,8.3105-.1445,11.5625-.4336l52.248,80.504V245.4141c0-10.84-1.8789-13.8028-13.4414-14.2364v-2.9629c3.541.2891,10.0449.4336,15.1035.4336,4.9864,0,10.4786-.1445,13.7305-.4336Z"/><rect class="cls-1" x="0.0121" y="201" width="653.6396" height="4"/><g id="Lemon"><path class="cls-1" d="M57.2436,79.2227c-10.0449.4335-11.9961,1.9511-11.9961,12.7187v76.3848c0,8.166,1.2285,9.3222,7.5879,9.3222H57.75c10.3339,0,25.2929-17.4882,28.6894-36.5664h3.3965c-.2891,3.541-.4336,8.3106-.4336,13.586,0,5.2031,0,16.0429,1.0117,26.3769-10.0449-.4336-23.9922-.4336-33.8926-.4336-10.623,0-34.6152,0-51.8144.4336V178.082c9.0332-.4336,10.5508-1.9511,10.5508-12.7187V91.9414c0-10.7676-1.6621-12.2852-10.5508-12.7187V76.26c5.6367.289,15.6816.4336,26.3769.4336,9.7559,0,20.09-.1446,26.16-.4336Z"/><path class="cls-1" d="M205.7006,181.0449c-10.0449-.4336-23.9922-.4336-33.8926-.4336-10.623,0-34.6152,0-51.8144.4336V178.082c9.0332-.4336,10.5508-1.9511,10.5508-12.7187V91.9414c0-10.7676-1.6621-12.2852-10.5508-12.7187V76.26c17.1992.4336,41.1914.4336,51.8144.4336,9.0332,0,21.752,0,30.93-.4336-.7226,9.9-1.0117,19.9453-1.0117,24.8593a106.8628,106.8628,0,0,0,.4336,10.6954h-3.3965c-3.6855-24.57-15.1035-32.1583-27.2441-32.1583h-1.9512c-7.66,0-9.0332,1.2286-9.0332,9.3223v37.8672h1.5176c11.1289,0,18.3555-10.9121,20.1621-19.5117h3.3965c-.4336,6.5039-.5781,10.9121-.5781,14.3808,0,2.5293.0722,4.5528.0722,6.6485,0,4.8418.2168,9.7558.94,21.0293h-3.3965c-1.8067-10.9844-9.4668-19.584-20.5957-19.584h-1.5176v38.5176c0,8.166,1.3731,9.3222,9.0332,9.3222h4.9141c9.7558,0,22.4746-8.3105,27.2441-35.0488h3.3965c-.2891,3.541-.4336,8.2383-.4336,13.5859A248.1675,248.1675,0,0,0,205.7006,181.0449Z"/><path class="cls-1" d="M373.3823,79.2227c-9.0332.4335-10.4786,1.9511-10.4786,12.7187v73.4219c0,10.7676,1.59,12.2851,10.4786,12.7187v2.9629c-6.07-.289-16.4043-.4336-26.2325-.4336-10.623,0-20.6679.1446-26.3046.4336V178.082c10.0449-.4336,11.996-1.9511,11.996-12.7187V89.5566L297.142,180.9h-2.3847L253.06,85.8711v66.1953c0,19.8008.8672,24.0645,14.959,26.0156v2.9629c-3.9746-.289-11.1289-.4336-16.6211-.4336-4.4082,0-9.3223.1446-12.2852.4336V178.082c9.0332-1.9511,10.5508-6.3593,10.5508-23.0527V91.9414c0-10.7676-1.6621-12.2852-10.5508-12.7187V76.26c2.9629.289,7.877.4336,12.2852.4336,11.418,0,22.1133-.1446,30.6406-.4336l27.9668,62.8711,24.2813-62.4375H347.15c9.8282,0,20.1622-.1446,26.2325-.4336Z"/><path class="cls-1" d="M647.6811,79.2227c-9.0332,1.9511-10.4785,6.3593-10.4785,23.0527v78.77c-1.4453-.1445-3.1074-.2168-4.8418-.2168-1.8067,0-3.6133.0723-5.5645.2168L561.2514,109.43v42.6367c0,19.8008.8672,24.0645,14.959,26.0156v2.9629c-3.9746-.289-11.1289-.4336-16.6211-.4336-4.4082,0-9.3223.1446-12.2852.4336V178.082c9.0332-1.9511,10.5508-6.3593,10.5508-23.0527V91.9414c0-10.7676-1.6621-12.2852-10.5508-12.7187V76.26c2.9629.289,7.877.4336,12.2852.4336,4.9141,0,9.9727-.1446,13.6582-.4336l60.4863,63.955V105.2383c0-19.8008-.8672-24.0645-14.8867-26.0156V76.26c3.9746.289,11.0566.4336,16.5488.4336,4.4082,0,9.3223-.1446,12.2852-.4336Z"/></g><path class="cls-2" d="M372.0845,128.1773S326.4884,77.755,367.885,32.5091c0,0,15.8321,20.636,17.89,45.12S372.0845,128.1773,372.0845,128.1773Z"/><path class="cls-2" d="M521.43,74.568s-63.7631-57.66-120.98-5.3107c0,0,26.0958,20.021,57.0573,22.623S521.43,74.568,521.43,74.568Z"/><path class="cls-2" d="M435.125,19.6239s-39.5905-35.801-75.1166-3.2973c0,0,16.203,12.4309,35.4269,14.0465S435.125,19.6239,435.125,19.6239Z"/><path class="cls-3" d="M461.4957,187.65c23.74.3083,37.3059-3.3914,40.389-3.3914s5.2414,4.6246,12.0242-1.5416c6.1663-6.7829,1.5417-8.9411,1.5416-12.0243s3.7-16.6488,3.3915-40.3889S497.8766,85.29,497.8766,85.29,476.6031,64.6327,452.863,64.3244s-37.306,3.3914-40.389,3.3914-5.2413-4.6246-12.0242,1.5415c-6.1663,6.783-1.5416,8.9412-1.5416,12.0244s-3.7,16.6488-3.3914,40.3889,20.9652,45.0137,20.9652,45.0137S437.7556,187.3412,461.4957,187.65Z"/><path class="cls-4" d="M400.5639,73.7908s-29.6865-32.583-40.1855-50.6846L349.88,5.0046,358.0252,7.72s19.0067,36.3843,45.6161,62.9937Z"/></svg>