<svg id="Layer_1" data-name="Layer 1" preserveAspectRatio="xMidYMid meet" xmlns="http://www.w3.org/2000/svg" width="187.1378" height="187.1378" viewBox="0 0 187.1378 187.1378"><defs><style>.cls-1{fill:#079247;}.cls-2{fill:#f6eb16;}.cls-3{fill:#754d25;}</style></defs><title>Lemon</title><path class="cls-1" d="M36.1171,126.48S-9.479,76.0571,31.9177,30.8113c0,0,15.832,20.636,17.89,45.12S36.1171,126.48,36.1171,126.48Z"/><path class="cls-1" d="M185.4625,72.87S121.6993,15.21,64.4824,67.56c0,0,26.0958,20.021,57.0573,22.6229S185.4625,72.87,185.4625,72.87Z"/><path class="cls-1" d="M99.1577,17.9261S59.5672-17.875,24.041,14.6287c0,0,16.203,12.431,35.4269,14.0466S99.1577,17.9261,99.1577,17.9261Z"/><path class="cls-2" d="M125.5283,185.9517c23.74.3084,37.306-3.3914,40.3891-3.3914s5.2414,4.6247,12.0242-1.5415c6.1662-6.7829,1.5416-8.9411,1.5415-12.0243s3.7-16.6489,3.3915-40.3889-20.9653-45.0138-20.9653-45.0138-21.2736-20.6569-45.0137-20.9652S79.59,66.018,76.5066,66.018,71.2653,61.3934,64.4824,67.56c-6.1663,6.7829-1.5415,8.9411-1.5415,12.0243s-3.7,16.6489-3.3914,40.389,20.9652,45.0137,20.9652,45.0137S101.7882,185.6434,125.5283,185.9517Z"/><path class="cls-3" d="M64.5966,72.0929S34.91,39.51,24.4111,21.4084L13.9121,3.3068,22.0578,6.022S41.0645,42.4063,67.6739,69.0157Z"/></svg>